<svg width="16" height="16" viewBox="0 0 16 16" fill="none" xmlns="http://www.w3.org/2000/svg">
<g clip-path="url(#clip0_990_922)">
<path d="M8.00033 2.6665C4.66699 2.6665 1.82033 4.73984 0.666992 7.6665C1.82033 10.5932 4.66699 12.6665 8.00033 12.6665C11.3337 12.6665 14.1803 10.5932 15.3337 7.6665C14.1803 4.73984 11.3337 2.6665 8.00033 2.6665ZM8.00033 10.9998C6.16033 10.9998 4.66699 9.5065 4.66699 7.6665C4.66699 5.8265 6.16033 4.33317 8.00033 4.33317C9.84033 4.33317 11.3337 5.8265 11.3337 7.6665C11.3337 9.5065 9.84033 10.9998 8.00033 10.9998ZM8.00033 5.6665C6.89366 5.6665 6.00033 6.55984 6.00033 7.6665C6.00033 8.77317 6.89366 9.6665 8.00033 9.6665C9.10699 9.6665 10.0003 8.77317 10.0003 7.6665C10.0003 6.55984 9.10699 5.6665 8.00033 5.6665Z" fill="white"/>
</g>
<defs>
<clipPath id="clip0_990_922">
<rect width="16" height="16" fill="white"/>
</clipPath>
</defs>
</svg>
