<svg width="127" height="56" viewBox="0 0 127 56" fill="none" xmlns="http://www.w3.org/2000/svg">
<path d="M115.226 39.6021C114.536 39.6021 113.966 39.3768 113.516 38.9262C113.065 38.449 112.84 37.8658 112.84 37.1767V20.7552C112.84 20.066 113.065 19.4961 113.516 19.0454C113.966 18.5683 114.536 18.3297 115.226 18.3297C115.915 18.3297 116.485 18.5683 116.935 19.0454C117.386 19.4961 117.611 20.066 117.611 20.7552V24.4928L117.333 21.8287C117.624 21.1926 117.996 20.6359 118.446 20.1588C118.923 19.6551 119.453 19.2443 120.037 18.9262C120.62 18.5816 121.243 18.3297 121.905 18.1707C122.568 18.0117 123.231 17.9321 123.894 17.9321C124.689 17.9321 125.351 18.1574 125.882 18.6081C126.438 19.0587 126.717 19.5889 126.717 20.1985C126.717 21.0733 126.491 21.7095 126.041 22.1071C125.59 22.4782 125.1 22.6637 124.569 22.6637C124.066 22.6637 123.602 22.571 123.178 22.3854C122.78 22.1999 122.316 22.1071 121.786 22.1071C121.309 22.1071 120.819 22.2264 120.315 22.4649C119.838 22.677 119.387 23.0216 118.963 23.4987C118.565 23.9759 118.234 24.5723 117.969 25.288C117.73 25.9772 117.611 26.7989 117.611 27.7532V37.1767C117.611 37.8658 117.386 38.449 116.935 38.9262C116.485 39.3768 115.915 39.6021 115.226 39.6021Z" fill="#40F8AB"/>
<path d="M102.703 17.9322C104.612 17.9322 106.056 18.3431 107.037 19.1648C108.045 19.9865 108.734 21.0866 109.105 22.465C109.476 23.8169 109.661 25.3278 109.661 26.9978V37.1767C109.661 37.8659 109.436 38.4491 108.986 38.9262C108.535 39.3768 107.965 39.6021 107.276 39.6021C106.587 39.6021 106.017 39.3768 105.566 38.9262C105.115 38.4491 104.89 37.8659 104.89 37.1767V26.9978C104.89 26.123 104.784 25.3411 104.572 24.6519C104.36 23.9362 103.976 23.3662 103.419 22.9421C102.862 22.518 102.067 22.3059 101.033 22.3059C100.026 22.3059 99.1645 22.518 98.4488 22.9421C97.7331 23.3662 97.1896 23.9362 96.8185 24.6519C96.4739 25.3411 96.3016 26.123 96.3016 26.9978V37.1767C96.3016 37.8659 96.0763 38.4491 95.6257 38.9262C95.1751 39.3768 94.6052 39.6021 93.916 39.6021C93.2268 39.6021 92.6568 39.3768 92.2062 38.9262C91.7556 38.4491 91.5303 37.8659 91.5303 37.1767V12.6042C91.5303 11.915 91.7556 11.345 92.2062 10.8944C92.6568 10.4173 93.2268 10.1787 93.916 10.1787C94.6052 10.1787 95.1751 10.4173 95.6257 10.8944C96.0763 11.345 96.3016 11.915 96.3016 12.6042V22.465L95.7052 22.3457C95.9438 21.8951 96.2751 21.4179 96.6993 20.9143C97.1234 20.3841 97.6403 19.8937 98.25 19.4431C98.8596 18.9925 99.5356 18.6346 100.278 18.3696C101.02 18.078 101.828 17.9322 102.703 17.9322Z" fill="#40F8AB"/>
<path d="M73.1046 36.3019C72.8396 35.9308 72.7203 35.4537 72.7468 34.8705C72.7733 34.2873 73.1179 33.7837 73.7806 33.3596C74.2047 33.0945 74.6553 32.9884 75.1325 33.0415C75.6096 33.068 76.0735 33.3065 76.5241 33.7572C77.2928 34.5259 78.1013 35.1223 78.9496 35.5464C79.7978 35.9706 80.8581 36.1826 82.1305 36.1826C82.5281 36.1561 82.9655 36.1031 83.4426 36.0236C83.9197 35.9175 84.3306 35.7055 84.6752 35.3874C85.0463 35.0428 85.2319 34.5259 85.2319 33.8367C85.2319 33.2535 85.0331 32.7896 84.6354 32.445C84.2378 32.1004 83.7077 31.8089 83.045 31.5703C82.4088 31.3317 81.6931 31.1064 80.8979 30.8943C80.0761 30.6558 79.2279 30.3907 78.3531 30.0991C77.5049 29.8075 76.7229 29.4364 76.0072 28.9858C75.2915 28.5087 74.7083 27.8857 74.2577 27.117C73.8071 26.3483 73.5818 25.3808 73.5818 24.2144C73.5818 22.8891 73.9529 21.7625 74.6951 20.8347C75.4373 19.9069 76.3916 19.1912 77.5579 18.6876C78.7507 18.184 79.9966 17.9321 81.2955 17.9321C82.1172 17.9321 82.9787 18.0382 83.88 18.2502C84.7812 18.4358 85.6427 18.7539 86.4645 19.2045C87.2862 19.6286 87.9754 20.1985 88.5321 20.9142C88.8236 21.3118 88.9959 21.789 89.049 22.3456C89.102 22.9023 88.8501 23.4059 88.2935 23.8566C87.8959 24.1747 87.432 24.3205 86.9018 24.294C86.3717 24.2409 85.9343 24.0554 85.5897 23.7373C85.1391 23.1541 84.5294 22.6902 83.7607 22.3456C83.0185 22.001 82.157 21.8287 81.1762 21.8287C80.7786 21.8287 80.3412 21.8818 79.8641 21.9878C79.4134 22.0673 79.0158 22.2661 78.6712 22.5842C78.3266 22.8758 78.1543 23.3529 78.1543 24.0156C78.1543 24.6253 78.3531 25.1157 78.7508 25.4868C79.1484 25.8314 79.6785 26.123 80.3412 26.3615C81.0304 26.5736 81.7594 26.7857 82.5281 26.9977C83.3233 27.2098 84.1318 27.4616 84.9535 27.7532C85.7753 28.0448 86.5307 28.4291 87.2199 28.9063C87.9091 29.3834 88.4658 30.0063 88.8899 30.7751C89.314 31.5173 89.5261 32.4716 89.5261 33.6379C89.5261 34.9898 89.1285 36.1429 88.3332 37.0971C87.538 38.0514 86.544 38.7804 85.3511 39.284C84.1583 39.7611 82.939 39.9997 81.6931 39.9997C80.1291 39.9997 78.5652 39.7346 77.0012 39.2045C75.4373 38.6478 74.1384 37.6803 73.1046 36.3019Z" fill="#40F8AB"/>
<path d="M68.7736 18.3296C69.4628 18.3296 70.0327 18.5682 70.4833 19.0453C70.9339 19.4959 71.1592 20.0658 71.1592 20.755V30.8544C71.1592 33.6642 70.3773 35.8909 68.8133 37.5343C67.2494 39.1778 64.9962 39.9996 62.0539 39.9996C59.1115 39.9996 56.8584 39.1778 55.2944 37.5343C53.757 35.8909 52.9883 33.6642 52.9883 30.8544V20.755C52.9883 20.0658 53.2136 19.4959 53.6642 19.0453C54.1149 18.5682 54.6848 18.3296 55.374 18.3296C56.0632 18.3296 56.6331 18.5682 57.0837 19.0453C57.5343 19.4959 57.7597 20.0658 57.7597 20.755V30.8544C57.7597 32.4714 58.1175 33.6775 58.8332 34.4727C59.5489 35.2414 60.6225 35.6258 62.0539 35.6258C63.5118 35.6258 64.5986 35.2414 65.3143 34.4727C66.03 33.6775 66.3879 32.4714 66.3879 30.8544V20.755C66.3879 20.0658 66.6132 19.4959 67.0638 19.0453C67.5144 18.5682 68.0844 18.3296 68.7736 18.3296Z" fill="#40F8AB"/>
<path d="M42.8517 17.9322C44.7602 17.9322 46.2049 18.3431 47.1857 19.1648C48.1929 19.9865 48.8821 21.0866 49.2533 22.465C49.6244 23.8169 49.8099 25.3278 49.8099 26.9978V37.1767C49.8099 37.8659 49.5846 38.4491 49.134 38.9262C48.6833 39.3768 48.1134 39.6021 47.4242 39.6021C46.735 39.6021 46.1651 39.3768 45.7145 38.9262C45.2639 38.4491 45.0385 37.8659 45.0385 37.1767V26.9978C45.0385 26.123 44.9325 25.3411 44.7205 24.6519C44.5084 23.9362 44.124 23.3662 43.5674 22.9421C43.0107 22.518 42.2155 22.3059 41.1817 22.3059C40.1744 22.3059 39.3129 22.518 38.5972 22.9421C37.8815 23.3662 37.3381 23.9362 36.967 24.6519C36.6224 25.3411 36.4501 26.123 36.4501 26.9978V37.1767C36.4501 37.8659 36.2248 38.4491 35.7741 38.9262C35.3235 39.3768 34.7536 39.6021 34.0644 39.6021C33.3752 39.6021 32.8053 39.3768 32.3547 38.9262C31.904 38.4491 31.6787 37.8659 31.6787 37.1767V12.6042C31.6787 11.915 31.904 11.345 32.3547 10.8944C32.8053 10.4173 33.3752 10.1787 34.0644 10.1787C34.7536 10.1787 35.3235 10.4173 35.7741 10.8944C36.2248 11.345 36.4501 11.915 36.4501 12.6042V22.465L35.8537 22.3457C36.0922 21.8951 36.4236 21.4179 36.8477 20.9143C37.2718 20.3841 37.7887 19.8937 38.3984 19.4431C39.0081 18.9925 39.684 18.6346 40.4262 18.3696C41.1684 18.078 41.9769 17.9322 42.8517 17.9322Z" fill="#40F8AB"/>
<path d="M3.03954 35.7322C1.95567 35.7322 1.17812 35.4259 0.706869 34.8133C0.235623 34.2007 0 33.3053 0 32.1272C0 31.0433 0.20028 29.6296 0.600839 27.886C1.02496 26.1188 1.57868 24.1514 2.26198 21.9836C2.96885 19.7923 3.75819 17.5421 4.63 15.233C5.5018 12.9004 6.40895 10.6148 7.35144 8.3764C8.29394 6.11442 9.21287 4.04094 10.1082 2.15595C10.5324 1.33127 10.98 0.765774 11.4513 0.459466C11.9225 0.153155 12.4409 0 13.0064 0C13.5483 0 14.0078 0.153155 14.3848 0.459466C14.7618 0.742212 14.9503 1.20168 14.9503 1.83786C14.9503 1.97923 14.7618 2.52117 14.3848 3.46366C14.0078 4.38259 13.513 5.58427 12.9004 7.06869C12.2877 8.52956 11.6162 10.1789 10.8858 12.0168C10.1554 13.8311 9.42493 15.7278 8.6945 17.7071C7.96406 19.6627 7.30432 21.5949 6.71526 23.5034C6.1262 25.412 5.65496 27.1791 5.30152 28.8049C6.1262 27.6975 7.00979 26.4723 7.95228 25.1292C8.91834 23.7626 9.89617 22.4078 10.8858 21.0647C11.899 19.6981 12.8886 18.4493 13.8546 17.3183C14.8443 16.1873 15.7632 15.2802 16.6114 14.5969C17.4597 13.9135 18.2019 13.5719 18.8381 13.5719C20.0162 13.5719 20.9587 13.9018 21.6655 14.5615C22.396 15.1977 22.7612 16.3051 22.7612 17.8838C22.7612 18.6142 22.6198 19.4978 22.3371 20.5346C22.0543 21.5477 21.7127 22.6198 21.3121 23.7508C20.9351 24.8582 20.6052 25.9303 20.3225 26.9671C20.0398 28.0038 19.8984 28.911 19.8984 29.6885C19.8984 30.1126 20.0987 30.3247 20.4992 30.3247C21.6538 30.3247 22.8201 30.0773 23.9982 29.5825C25.1999 29.0877 26.3427 28.4751 27.4265 27.7446C28.534 26.9906 29.5354 26.2484 30.4307 25.518C31.3497 24.764 32.0919 24.1396 32.6574 23.6448C33.0579 23.2678 33.4231 23.0204 33.753 22.9026C34.0829 22.7612 34.3892 22.6905 34.672 22.6905C35.638 22.6905 36.121 23.1735 36.121 24.1396C36.121 24.3281 36.0857 24.5637 36.015 24.8465C35.9443 25.1056 35.7205 25.4355 35.3435 25.8361C34.9665 26.2366 34.401 26.8021 33.647 27.5326C32.893 28.263 32.0094 29.0406 30.9962 29.8652C30.0066 30.6899 28.9227 31.4792 27.7446 32.2332C26.5901 32.9637 25.4002 33.5645 24.1749 34.0358C22.9497 34.507 21.7598 34.7426 20.6052 34.7426C18.8616 34.7426 17.5186 34.2478 16.5761 33.2582C15.6336 32.2921 15.1624 30.9727 15.1624 29.2997C15.1624 28.1452 15.398 26.6961 15.8692 24.9525C16.3405 23.1853 16.8706 21.3828 17.4597 19.5449C16.635 20.3461 15.775 21.3003 14.8796 22.4078C13.9842 23.4916 13.0771 24.6462 12.1582 25.8714C11.2392 27.0731 10.3321 28.263 9.43671 29.4411C8.5649 30.5957 7.72844 31.656 6.92732 32.622C6.1262 33.5645 5.39577 34.3185 4.73603 34.884C4.07628 35.4495 3.51079 35.7322 3.03954 35.7322Z" fill="#40F8AB"/>
</svg>
