<svg width="28" height="28" viewBox="0 0 28 28" fill="none" xmlns="http://www.w3.org/2000/svg">
<g clip-path="url(#clip0_990_328)">
<path d="M8.16667 11.6668H5.83333V9.3335C5.83333 8.69183 5.30833 8.16683 4.66667 8.16683C4.025 8.16683 3.5 8.69183 3.5 9.3335V11.6668H1.16667C0.525 11.6668 0 12.1918 0 12.8335C0 13.4752 0.525 14.0002 1.16667 14.0002H3.5V16.3335C3.5 16.9752 4.025 17.5002 4.66667 17.5002C5.30833 17.5002 5.83333 16.9752 5.83333 16.3335V14.0002H8.16667C8.80833 14.0002 9.33333 13.4752 9.33333 12.8335C9.33333 12.1918 8.80833 11.6668 8.16667 11.6668ZM21 12.8335C22.9367 12.8335 24.4883 11.2702 24.4883 9.3335C24.4883 7.39683 22.9367 5.8335 21 5.8335C20.6267 5.8335 20.265 5.89183 19.9383 5.99683C20.6033 6.94183 20.9883 8.08516 20.9883 9.3335C20.9883 10.5818 20.5917 11.7135 19.9383 12.6702C20.265 12.7752 20.6267 12.8335 21 12.8335ZM15.1667 12.8335C17.1033 12.8335 18.655 11.2702 18.655 9.3335C18.655 7.39683 17.1033 5.8335 15.1667 5.8335C13.23 5.8335 11.6667 7.39683 11.6667 9.3335C11.6667 11.2702 13.23 12.8335 15.1667 12.8335ZM15.1667 15.1668C12.8333 15.1668 8.16667 16.3335 8.16667 18.6668V19.8335C8.16667 20.4752 8.69167 21.0002 9.33333 21.0002H21C21.6417 21.0002 22.1667 20.4752 22.1667 19.8335V18.6668C22.1667 16.3335 17.5 15.1668 15.1667 15.1668ZM22.89 15.3535C23.8583 16.2052 24.5 17.2902 24.5 18.6668V20.4168C24.5 20.6152 24.4767 20.8135 24.4417 21.0002H27.4167C27.7433 21.0002 28 20.7435 28 20.4168V18.6668C28 16.8702 25.235 15.7618 22.89 15.3535Z" fill="#40F8AB"/>
</g>
<defs>
<clipPath id="clip0_990_328">
<rect width="28" height="28" fill="white"/>
</clipPath>
</defs>
</svg>
