<svg width="32" height="33" viewBox="0 0 32 33" fill="none" xmlns="http://www.w3.org/2000/svg">
<g clip-path="url(#clip0_990_1019)">
<path d="M15.12 20.5267C15.64 21.0467 16.48 21.0467 17 20.5267L25.48 12.0467C26 11.5267 26 10.6867 25.48 10.1667L18.88 3.56672C18.3733 3.03339 17.5333 3.03339 17.0133 3.55339L8.52 12.0467C8 12.5667 8 13.4067 8.52 13.9267L15.12 20.5267ZM17.9467 6.38005L22.6667 11.1001L16.0667 17.7001L11.3467 12.9801L17.9467 6.38005ZM27.2133 21.0467L24.3867 18.2201C24.1467 17.9801 23.8 17.8334 23.4533 17.8334H23.0933L20.4267 20.5001H22.9733L25.3333 23.1667H6.66667L9.04 20.5001H11.7733L9.10667 17.8334H8.54667C8.18667 17.8334 7.85333 17.9801 7.6 18.2201L4.77333 21.0467C4.28 21.5534 4 22.2334 4 22.9401V27.1667C4 28.6334 5.2 29.8334 6.66667 29.8334H25.3333C26.8 29.8334 28 28.6467 28 27.1667V22.9401C28 22.2334 27.72 21.5534 27.2133 21.0467Z" fill="#40F8AB"/>
</g>
<defs>
<clipPath id="clip0_990_1019">
<rect width="32" height="32" fill="white" transform="translate(0 0.5)"/>
</clipPath>
</defs>
</svg>
