<svg width="32" height="33" viewBox="0 0 32 33" fill="none" xmlns="http://www.w3.org/2000/svg">
<g clip-path="url(#clip0_990_1009)">
<path d="M22.7863 6.57994C21.853 5.20661 20.7863 3.92661 19.5863 2.77995C19.1197 2.32661 18.333 2.75328 18.4663 3.39328C18.7197 4.64661 18.9863 6.29994 18.9863 7.77994C18.9863 10.5266 17.1863 12.7533 14.4397 12.7533C12.3863 12.7533 10.7063 11.5133 9.97301 9.73994C9.83967 9.47328 9.78634 9.31328 9.70634 9.01994C9.55967 8.45994 8.82634 8.28661 8.50634 8.77994C8.26634 9.13994 8.03967 9.49994 7.82634 9.88661C6.23967 12.6066 5.33301 15.7799 5.33301 19.1666C5.33301 25.0599 10.1063 29.8333 15.9997 29.8333C21.893 29.8333 26.6663 25.0599 26.6663 19.1666C26.6663 14.5133 25.2263 10.1933 22.7863 6.57994ZM15.613 25.8333C13.2397 25.8333 11.3197 23.9666 11.3197 21.6466C11.3197 19.4866 12.7197 17.9666 15.0663 17.4866C17.0263 17.0866 19.0397 16.2466 20.4397 14.9266C20.813 14.5799 21.4263 14.7399 21.533 15.2333C21.8397 16.5933 21.9997 18.0066 21.9997 19.4333C22.013 22.9666 19.1463 25.8333 15.613 25.8333Z" fill="#40F8AB"/>
</g>
<defs>
<clipPath id="clip0_990_1009">
<rect width="32" height="32" fill="white" transform="translate(0 0.5)"/>
</clipPath>
</defs>
</svg>
