<svg width="32" height="33" viewBox="0 0 32 33" fill="none" xmlns="http://www.w3.org/2000/svg">
<g clip-path="url(#clip0_990_1014)">
<path d="M26.667 8.49984H25.3337V19.1665C25.3337 19.8998 24.7337 20.4998 24.0003 20.4998H8.00033V21.8332C8.00033 23.2998 9.20033 24.4998 10.667 24.4998H24.0003L29.3337 29.8332V11.1665C29.3337 9.69984 28.1337 8.49984 26.667 8.49984ZM22.667 15.1665V5.83317C22.667 4.3665 21.467 3.1665 20.0003 3.1665H5.33366C3.86699 3.1665 2.66699 4.3665 2.66699 5.83317V23.1665L8.00033 17.8332H20.0003C21.467 17.8332 22.667 16.6332 22.667 15.1665Z" fill="#40F8AB"/>
</g>
<defs>
<clipPath id="clip0_990_1014">
<rect width="32" height="32" fill="white" transform="translate(0 0.5)"/>
</clipPath>
</defs>
</svg>
