<svg width="32" height="33" viewBox="0 0 32 33" fill="none" xmlns="http://www.w3.org/2000/svg">
<g clip-path="url(#clip0_990_1024)">
<path d="M16.0005 13.8333C11.3738 13.8333 7.52047 17.22 6.78714 21.6467C6.6538 22.4467 7.30714 23.1667 8.12047 23.1667C8.7738 23.1667 9.32047 22.6867 9.42714 22.0333C9.9738 18.8867 12.7071 16.5 16.0005 16.5C19.2938 16.5 22.0271 18.8867 22.5738 22.0333C22.6805 22.6867 23.2271 23.1667 23.8805 23.1667C24.6938 23.1667 25.3338 22.4467 25.2005 21.6467C24.4805 17.22 20.6271 13.8333 16.0005 13.8333ZM16.0005 8.5C8.40047 8.5 2.14714 14.2867 1.40047 21.7C1.3338 22.4867 1.94714 23.1667 2.74714 23.1667C3.42714 23.1667 4.00047 22.66 4.06714 21.9933C4.6538 15.9267 9.78714 11.1667 16.0005 11.1667C22.2138 11.1667 27.3471 15.9267 27.9471 21.9933C28.0138 22.66 28.5871 23.1667 29.2671 23.1667C30.0538 23.1667 30.6805 22.4867 30.6005 21.7C29.8538 14.2867 23.6005 8.5 16.0005 8.5Z" fill="#40F8AB"/>
</g>
<defs>
<clipPath id="clip0_990_1024">
<rect width="32" height="32" fill="white" transform="translate(0 0.5)"/>
</clipPath>
</defs>
</svg>
