<svg width="64" height="64" viewBox="0 0 64 64" fill="none" xmlns="http://www.w3.org/2000/svg">
<g clip-path="url(#clip0_990_1779)">
<path d="M50.6667 8H13.3067C10.3467 8 8 10.4 8 13.3333V50.6667C8 53.6 10.3467 56 13.3067 56H50.6667C53.6 56 56 53.6 56 50.6667V13.3333C56 10.4 53.6 8 50.6667 8ZM50.6667 40H42.32C41.0667 40 40.0533 40.9067 39.7067 42.1333C38.7733 45.52 35.6533 48 32 48C28.3467 48 25.2267 45.52 24.2933 42.1333C23.9467 40.9067 22.9333 40 21.68 40H13.3067V16C13.3067 14.5333 14.5067 13.3333 15.9733 13.3333H48C49.4667 13.3333 50.6667 14.5333 50.6667 16V40ZM42.6667 26.6667H37.3333V18.6667H26.6667V26.6667H21.3333L31.0667 36.4C31.6 36.9333 32.4267 36.9333 32.96 36.4L42.6667 26.6667Z" fill="white" fill-opacity="0.25"/>
</g>
<defs>
<clipPath id="clip0_990_1779">
<rect width="64" height="64" fill="white"/>
</clipPath>
</defs>
</svg>
